<svg xmlns="http://www.w3.org/2000/svg" viewBox="0 0 1920.5 1079"><defs><style>.cls-1{fill:none;}.cls-2{fill:#ed6e32;}.cls-3{fill:#ed7432;}</style></defs><title>Back Mountain (2)</title><g id="Layer_2" data-name="Layer 2"><g id="Back_Mountain" data-name="Back Mountain"><rect class="cls-1" width="1920" height="1079"/><polygon class="cls-2" points="1920.5 765.04 1919.5 1078.5 0.5 1078.5 0.5 642.26 32.5 657.5 32.5 694.5 51.5 685.5 73.5 668.5 114.5 659.5 142.5 668.5 164.5 681.5 231.5 670.5 252.5 683.5 308.5 685.5 358.5 681.5 376.5 670.5 406.5 616.5 423.5 593.5 462.5 593.5 479.5 571.5 510.5 551.5 548.5 521.5 559.5 491.5 592.5 467.5 611.5 476.5 629.5 458.5 643.69 426.71 643.71 426.67 654.5 402.5 678.5 392.5 722.5 350.5 739.5 331.5 773.5 331.5 810.5 353.5 842.5 372.5 884.5 372.5 884.5 396.5 908.5 428.5 946.5 428.5 985.5 411.5 1003.5 424.5 1042.5 452.5 1108.5 491.5 1139.5 476.5 1148.49 478.3 1169.5 482.5 1212.5 500.5 1258.5 500.5 1286.5 484.5 1331.5 512.5 1331.5 552.5 1357.5 567.5 1375.5 567.5 1398.5 565.5 1433.5 593.5 1483.5 599.5 1509.5 597.5 1519.5 612.5 1535.5 642.5 1535.5 694.5 1560.5 694.5 1580.5 731.5 1608.5 778.5 1617.5 761.5 1643.5 792.5 1697.5 792.5 1707.5 763.5 1744.5 724.5 1781.5 724.5 1809.5 748.5 1855.5 748.5 1874.5 753.5 1920.5 765.04"/><polygon class="cls-3" points="1148.49 478.3 935.5 648.5 842.5 626.5 779.5 596.5 734.5 551.5 708.5 551.5 711.5 497.5 662.5 510.5 678.74 488.5 667.5 446.5 643.71 426.67 654.5 402.5 678.5 392.5 722.5 350.5 739.5 331.5 773.5 331.5 810.5 353.5 842.5 372.5 884.5 372.5 884.5 396.5 908.5 428.5 946.5 428.5 985.5 411.5 1003.5 424.5 1042.5 452.5 1108.5 491.5 1139.5 476.5 1148.49 478.3"/></g></g></svg>