<svg xmlns="http://www.w3.org/2000/svg" viewBox="0 0 312 223"><defs><style>.cls-1{fill:#5f101e;}.cls-2{fill:#520c00;}</style></defs><title>Birds (2)</title><g id="Layer_2" data-name="Layer 2"><g id="Birds"><path class="cls-1" d="M1.32,18s15,3.45,15,16C16.32,34,19,21,30,19.3c0,0-8.38,4.31-13.24,17.7,0,0-2.64-13.82-16.76-18.57Z"/><path class="cls-1" d="M54.32,0s15,2.73,15,12.61C69.32,12.61,72,2.39,83,1c0,0-8.38,3.41-13.24,14C69.76,15,67.12,4.09,53,.34Z"/><path class="cls-1" d="M100.06,4s12,2.18,12,10.09c0,0,2.12-8.18,10.94-9.27,0,0-6.71,2.73-10.59,11.18,0,0-2.12-8.73-13.41-11.73Z"/><path class="cls-1" d="M51.57,28s6.5,1.82,6.5,8.41c0,0,1.15-6.82,5.93-7.73,0,0-3.63,2.27-5.74,9.32,0,0-1.14-7.27-7.26-9.77Z"/><path class="cls-2" d="M174.09,154.57c-5.75,6.17,27.58,17.28,27.58,17.28l23,17.28,2.3-2.47,12.65,21-8-2.47,8,4.94s6.89,16,17.23,12.34,11.5-7.41,10.35-18.51-4.6-9.88-4.6-9.88S281,149.64,312,141c0,0-57.46,13.57-56.31,43.19,0,0-10.35-2.47-10.35,9.87C245.34,194.06,179.83,148.4,174.09,154.57Z"/><path class="cls-2" d="M142.87,36.85c-3.84,3.58,18.42,10,18.42,10l15.36,10,1.53-1.43,8.45,12.14-5.38-1.43L186.63,69s4.61,9.28,11.52,7.14,7.67-4.29,6.91-10.71S202,59.7,202,59.7,214.27,34,235,29c0,0-38.39,7.85-37.62,25,0,0-6.91-1.43-6.91,5.71C190.47,59.7,146.7,33.28,142.87,36.85Z"/><path class="cls-2" d="M123,68.47,121.63,70a46,46,0,0,0-6.52-15.92,28.58,28.58,0,0,0-2-2.63l1.16.45c-1.47-3.08-5.43-9.11-13.88-9.11-3.65,0-4.66,6.6-7.83,7.34-5.91,1.37-11.65-3.22-14.39-5.89-2.78,1.49-8.68,6-8.15,17.73l-2-1.14s-.26-14.64,8.86-18.63c1.77-1.49,10.6-8.31,21.89-6.6,0,0,2-4.2,4.78-1.92s.68,3.83-1.37,4.21a14.27,14.27,0,0,1-.34,1.64c0,.16-.08.33-.14.51C107,41,121.61,45.67,123,68.47Z"/><path class="cls-2" d="M137.44,115.87s-3.4,9.45,6.8,12.29S157,125.32,157,125.32s5.95-7.56,0-17c0,0,46.75,2.84,49.3,39.69l1.7-1.89a46.05,46.05,0,0,0-12.75-29.29l-1.7.94s-8.5-19.84-37.4-18l-5.1.94V97.92s-11.06-6.62-8.51,4.72l-2.55,1s-28.9-16.07-45.05,17l-1.7.94S85.59,133.83,90.69,148l1.7-1.89s5.1-54.81,44.2-35.91"/></g></g></svg>