<svg xmlns="http://www.w3.org/2000/svg" viewBox="0 0 1202 158"><defs><style>.cls-1{fill:#f2e3a2;}</style></defs><title>Clouds (2)</title><g id="Layer_2" data-name="Layer 2"><g id="Clouds"><polygon class="cls-1" points="0 140 158 121 191 107 265 107 291 124 321 107 392 107 420 124 476 124 504 107 504 140 436 158 345 133 299 144 237 144 140 144 72 144 0 140"/><polygon class="cls-1" points="790 33 916.96 14 943.48 0 1002.95 0 1023.84 17 1047.95 0 1105 0 1127.5 17 1172.5 17 1195 0 1195 33 1140.36 51 1067.23 26 1030.27 37 980.45 37 902.5 37 847.86 37 790 33"/><polygon class="cls-1" points="1202 18 1195 33 1195 0 1202 18"/></g></g></svg>