<svg xmlns="http://www.w3.org/2000/svg" viewBox="0 0 1919 707"><defs><style>.cls-1{fill:#c54528;}.cls-2{fill:#dc672c;}.cls-3{fill:#cd4528;}</style></defs><title>Front Mountain (2)</title><g id="Layer_2" data-name="Layer 2"><g id="Front_Mountain" data-name="Front Mountain"><polyline class="cls-1" points="0 221.42 25 228.63 36 253.85 68 237.64 94 198 105 221.42 122 234.94 163 270.07 218 280.88 263 263.76 317 295.3 356 283.58 373 295.3 404 351.15 440 384.48 484 384.48 484 414.21 551 463.76 609 450.25 637 485.38 708 544.84 781 534.93 820.5 523.67 860 508.81 892 495.29 975 495.29 1041 474.57 1109.21 537.37 1152.18 595.78 1204 543.94 1208.41 506.73 1243 503.4 1299 463.76 1312 496.19 1359 523.22 1398 486.28 1509 486.28 1550 495.29 1571 481.78 1621 481.78 1654 463.76 1654 500.02 1675 499.8 1718 479.98 1742 463.76 1772 463.76 1809 451.15 1854 452.95 1889 463.76 1918.62 474.88 1919 707 0 707 0 221.42 0 221.42"/><polygon class="cls-1" points="461 653 543 579 569 579 590 547 621.02 539.97 637 485.38 637 485.38 697 485 716 466 736 452 757 417 794 358 826 339 841 313 880 287 904 259 932 227 984 198 1023 162 1078.23 162 1088.09 130.18 1099 95 1149 40 1179 32 1201 0 1226 27 1246 36 1246 71 1270 77 1328 114 1360 110 1382 116 1430 177 1467 177 1507 213 1534 227 1572 270 1590 313 1624 313 1663 343 1680 369 1745 518 1782 523 1834 546 1882 672 461 653"/><polygon class="cls-2" points="1854.59 600.06 1311 532 1272.23 484.88 1299 467 1274 413 1257 393 1257 308 1234 308 1238 227 1257 188 1206 188 1219 154 1193 67 1198.44 29.93 1226 27 1246 36 1246 71 1270 77 1328 114 1360 110 1382 116 1430 177 1467 177 1507 213 1534 227 1572 270 1590 313 1624 313 1663 343 1680 369 1745 518 1782 523 1834 546 1854.59 600.06"/><polygon class="cls-3" points="1854.59 600.06 1311 532 1272.23 484.88 1299 467 1274 413 1257 393 1257 308 1234 308 1238 227 1257 188 1206 188 1219 154 1193 67 1198.44 29.93 1226 27 1246 36 1246 71 1270 77 1328 114 1360 110 1382 116 1430 177 1467 177 1507 213 1534 227 1572 270 1590 313 1624 313 1663 343 1680 369 1745 518 1782 523 1834 546 1854.59 600.06"/></g></g></svg>