<svg xmlns="http://www.w3.org/2000/svg" viewBox="0 0 1920 300"><defs><style>.cls-1{fill:#c42a43;}</style></defs><title>Layer 1 (2)</title><g id="Layer_2" data-name="Layer 2"><g id="Layer_1-2" data-name="Layer 1"><path class="cls-1" d="M0,0,34,40H78l24,13,31,18h97l29,17,48,16,71-16,37,16,29,17,46,18,34,22,44-11,20-20,19,18,51,2,31-22,29,15,64,27h37l49-20h24l37,11,58,9,22,17,46,14s26,14,44,0,33-16,33-16l47-9s33-1,33,14,44,17,44,17h77l60-48,55-9,26,9V139l31-35,29,24,40,9,79-11,29-22,33,11,48,20,49-7,44,15,33,9,31-11V300H0Z"/></g></g></svg>