<svg xmlns="http://www.w3.org/2000/svg" viewBox="0 0 1920 408"><defs><style>.cls-1{fill:#9c1e33;}</style></defs><title>Layer 3 (2)</title><g id="Layer_2" data-name="Layer 2"><g id="Layer_3" data-name="Layer 3"><polygon class="cls-1" points="0 0 29 51 29 88 78 88 122 88 151 88 175 108 201 126 246 114 294 114 316 152 396 218 431 176 449 150 499 108 559 108 590 114 610 123 647 114 663 139 689 152 731 150 751 168 782 163 799 190 843 218 870 207 916 187 998 190 1020 218 1095 218 1205 227 1245 258 1277.03 282.24 1363.99 282.24 1410 220 1448 258 1470 302 1538 302 1737 282 1856 258 1920 174 1920 408 0 408 0 0"/></g></g></svg>